# xmcd CD database file
#
# Track frame offsets:
#	150
#	14635
#	29292
#	42481
#	54557
#	66907
#	78708
#	93335
#	107166
#	121433
#	134035
#	148076
#	162148
#	178009
#	188567
#	203915
#	218577
#	236200
#	249698
#	264094
#
# Disc length: 3680 seconds
#
# Revision: 0
# Processed by: cddbd v1.5PL3 Copyright (c) Steve Scherf et al.
# Submitted via: Feurio! 1.66.7ß - http://www.feurio.com
#
DISCID=2b0e5e14
DTITLE=John Lee Hooker - Hommage CD2
DYEAR=2001
DGENRE=Blues
TTITLE0=Grinder Man
TTITLE1=Playin' The Races
TTITLE2=Do My Baby Think Of Me
TTITLE3=Let Your Daddy Ride
TTITLE4=I'm In The Mood
TTITLE5=Queen Bee
TTITLE6=Woman In My Life
TTITLE7=Tease Me Baby
TTITLE8=Turn Over A New Leaf
TTITLE9=Mad Man Blues
TTITLE10=Three Long Years Today
TTITLE11=Louise
TTITLE12=Hey Baby
TTITLE13=Walkin' This Highway
TTITLE14=Just Me And My Telephone
TTITLE15=Sugar Mama
TTITLE16=Lonely Boy Boogie
TTITLE17=Union Station Blues
TTITLE18=Catfish
TTITLE19=Strike Blues
EXTD=
EXTT0=John Lee Hooker, Besman
EXTT1=John Lee Hooker, Besman
EXTT2=John Lee Hooker, Besman
EXTT3=John Lee Hooker, Besman
EXTT4=John Lee Hooker, Toud
EXTT5=John Lee Hooker, Besman
EXTT6=John Lee Hooker, Besman
EXTT7=John Lee Hooker, Besman
EXTT8=John Lee Hooker, Besman
EXTT9=John Lee Hooker
EXTT10=John Lee Hooker, Besman
EXTT11=John Lee Hooker
EXTT12=John Lee Hooker
EXTT13=John Lee Hooker, Besman
EXTT14=John Lee Hooker
EXTT15=John Lee Hooker
EXTT16=John Lee Hooker
EXTT17=John Lee Hooker
EXTT18=John Lee Hooker
EXTT19=John Lee Hooker, Besman
PLAYORDER=
